<svg version="1.1" xmlns="http://www.w3.org/2000/svg" xmlns:xlink="http://www.w3.org/1999/xlink" x="0px" y="0px"
	 viewBox="0 350 450 350" enable-background="new 0 350 450 350" xml:space="preserve">
	<g class="spots">
		<polygon id="ToothT" fill="#FFFFFF" data-key="T" data-disabled="false" points="65.7,373.5 74,375.2 82,380.8 86.3,384.8 90.3,390.2 92.7,395.8 93,404.8 93,416.8
			93,424.5 94.3,432.2 95.7,438.5 94.7,444.2 92.3,450.2 89,453.5 77.7,456.5 68.7,460.5 64.3,461.2 54.7,456.5 48.3,450.2 42,442.2
			36.3,425.2 33.3,407.8 34.3,399.5 36,392.8 39.7,383.5 47,377.2 57,373.2 	"/>
		<polygon id="ToothS" fill="#FFFFFF" data-key="S" data-disabled="false" points="93.7,456.2 82.7,455.8 70.7,460.8 66.3,467.2 63.7,474.2 62,487.2 63.3,500.2
			66.3,509.5 70.3,517.2 76.3,524.8 85.3,531.2 93.3,534.8 102.3,535.8 109.3,534.5 119,529.8 121.7,521.2 122,510.2 120.7,502.8
			114.3,484.5 108.7,470.8 103,462.5 	"/>
		<polygon id="ToothR" fill="#FFFFFF" data-key="R" data-disabled="false" points="129.3,532.2 137,535.2 142.7,541.2 146,548.8 147.7,557.8 144.7,565.2 136.7,570.5
			123,573.8 113,574.2 105,572.8 101.3,564.8 103,551.2 107.3,541.2 111.3,535.5 124,531.5 	"/>
		<polygon id="ToothQ" fill="#DDDDDD" data-key="Q" data-disabled="true" points="164.3,564.5 168.3,568.8 173,592.2 172,598.2 169.3,601.8 162,601.8 152,599.8
			142.3,595.5 131,586.8 130.7,584.5 135,575.8 140.3,570.2 149.7,564.5 159,562.8 	"/>
		<polygon id="ToothP" fill="#DDDDDD" data-key="P" data-disabled="true" points="208,576.5 218,607.2 214,611.5 206.7,613.2 191,612.8 179,606.8 172.3,601.5
			174,597.8 190.3,578.2 199.7,571.8 205.7,573.8 	"/>
		<polygon id="ToothO" fill="#DDDDDD" data-key="O" data-disabled="true" points="244.3,574.2 235.7,575.2 230.7,581.8 225.7,593.5 221.7,604.5 220.3,609.8 224,613.5
			234.3,615.5 248.7,613.8 258.7,610.8 264,606.2 265.3,598.8 	"/>
		<polygon id="ToothN" fill="#DDDDDD" data-key="N" data-disabled="true" points="306.3,575.8 298.7,569.2 289.7,566.2 280.7,564.2 275.3,566.8 272,572.2 268.7,583.8
			267.3,593.2 266.3,599.2 266.7,603.8 270.7,607.8 276.3,608.8 286.7,605.2 300,597.5 307.7,590.5 309,583.5 	"/>
		<polygon id="ToothM" fill="#FFFFFF" data-key="M" data-disabled="false" points="335,532.2 341.7,546.5 343.3,562.8 339.7,570.5 331.7,573.5 309,572.5 302,569.2
			298,564.5 299.7,548.2 303,539.5 307.3,531.8 315.3,525.2 321.3,525.2 325,525.5 	"/>
		<polygon id="ToothL" fill="#FFFFFF" data-key="L" data-disabled="false" points="354,450.2 365.7,453.8 377,459.5 384.3,469.2 385,481.5 382.7,491.8 369.7,517.8
			357.3,527.8 340.7,532.2 331.7,528.5 324.3,523.5 321,515.2 320.7,504.2 325.3,489.5 330.3,470.2 335,460.5 343.7,453.2 	"/>
		<polygon id="ToothK" fill="#FFFFFF" data-key="K" data-disabled="false" points="391.7,370.2 379,367.8 366.7,370.2 356.3,378.8 350.3,388.2 347.7,396.2 348,411.5
			346.7,427.8 347.7,438.5 352,445.2 364.7,453.2 374.3,455.5 381.7,454.8 389.7,451.8 394.3,445.8 397.7,433.8 401.7,421.5
			406.7,413.5 409.7,400.5 408.7,390.5 404.3,380.2 	"/>
	</g>
	<g class="child-outlines">
		<g id="XMLID_9_">
			<path id="XMLID_143_" fill="#010101" d="M63.6,393.6c1,0.1,2-0.9,1.9-1.9c-0.1-1-1.3-1.8-2.3-1.4l0.1,0.5
				C63.4,391.7,63.5,392.6,63.6,393.6z"/>
			<path id="XMLID_142_" fill="#010101" d="M380.9,401c-1,1.3-1,3.2,0,4.5c1.8,2.5,0.9,6-0.5,8.8c-1.4,2.7-3.4,5.4-3.5,8.5
				c0,1.1,0.1,2.2-0.2,3.2c-0.7,2-3.3,2.7-5.4,2.6c-2.1-0.1-4.4-0.5-6.4,0.4c0.7,2,3.6,1.8,5.8,1.5c4.1-0.5,8.4,0.7,11.7,3.1
				c-3.5-6.9-2.7-15.8,2.1-21.9c1.3-1.6,1.2-4,0.3-5.9C383.9,403.9,382.4,402.4,380.9,401z"/>
			<path id="XMLID_141_" fill="#010101" d="M94.8,506.7c0.2,1,1.5,1.6,2.4,1c-0.3-0.8-0.5-1.7-0.8-2.5l0.2-0.4
				C95.6,504.7,94.6,505.7,94.8,506.7z"/>
			<path id="XMLID_140_" fill="#010101" d="M352.5,484c1-0.4,1.9-1.3,2.3-2.3c-0.6-0.7-1.8-0.7-2.5,0c-0.6,0.7-0.6,1.9,0.1,2.5
				L352.5,484z"/>
			<path id="XMLID_139_" fill="#010101" d="M75.9,434.2c-1-0.6-1.9-1.3-2.9-1.9c-2.2-1.5-4.4-2.9-6.6-4.4c-0.7-0.5-0.5-1.6-0.2-2.5
				c1.2-3.9,0.6-8.3-1.6-11.7c-0.6-1-2.2-1.8-2.7-0.7c4.3,5.2,3.7,13.8-1.2,18.5c-1,0.9-2,2.8-0.8,3.3c2.6-3,7.3-3.8,10.7-1.9
				C72.4,433.8,74.4,435.4,75.9,434.2z"/>
			<path id="XMLID_135_" fill="#010101" d="M355.9,500.4c1.7-2.7,3.5-5.7,6.5-6.7c1.4-0.4,3.3-0.8,3.3-2.2c0-1.6-2.5-1.7-3.9-1
				c-4.1,2-6.9,5.9-9.5,9.7c-1.3,1.8-2.6,3.6-3.8,5.5C351.6,505.8,354.2,503.1,355.9,500.4z"/>
			<path id="XMLID_133_" fill="#010101" d="M63.5,402.1c1,1,2.6,1.2,3.8,0.6c-0.8-2-2.1-4.4-4.2-4.6l0.1,0.2
				C62.4,399.4,62.6,401.1,63.5,402.1z"/>
			<path id="XMLID_80_" fill="#010101" d="M401.6,375c-9.8-10-27.2-12.3-38.5-3.9c-3.9,2.9-6.9,6.7-9.9,10.5c-2,2.6-4.1,5.2-5.2,8.4
				c-1,2.8-1.1,5.8-1.2,8.7c-0.3,7.7-0.7,15.4-1,23.1c-0.3,7.5-0.5,15.4,3,22.1c1.1,2.1-0.1,4.7-2,6.1c-1.8,1.4-4.1,2.1-6.2,3.2
				c-8.3,4.3-11.4,14.3-13.7,23.3c-1.9,7.5-3.9,15-5.8,22.5c-1.7,6.5-3.3,13.5-1,19.8c0.7,1.9-1.7,3.4-3.6,4.2
				c-0.6,0.3-1.1,0.7-1.6,1.1c-0.2,0-0.4,0.1-0.6,0.1c-0.2,0-0.3,0.1-0.4,0.2c-0.3,0.2-0.7,0.4-1.1,0.7c-1.4,1-2.8,1.9-4.1,3
				c-0.5,0.4-0.8,0.9-1.2,1.4c-0.2,0-0.5,0.1-0.7,0.3c-0.6,0.7-1.1,1.4-1.7,2c-0.5,0.4-0.9,0.8-1.2,1.4c-0.6,0.4-0.9,1.1-1.3,1.7
				c-1.9,3.6-3.5,7.4-4.7,11.4c-0.6,1.8-0.9,3.9-0.7,5.8c-0.1,0.1-0.1,0.3-0.1,0.5c0,1.4-0.1,2.8-0.1,4.3c-0.2,0-0.4,0-0.5,0
				c-0.4,1.2-0.6,2.8,0.5,3.3c0,0.3,0,0.5,0,0.8c0,1.1-0.1,2.2,0.1,3.2c-1.6,1-4,1.1-5.9,0.6c-3-0.9-5.7-2.8-8.8-3
				c-5.7-0.4-10.2,5-12.4,10.3c-2.2,5.2-3.2,10.8-3.2,16.4c0,0,0,0,0,0.1c0,2.7-0.6,5.3-1,7.9c-1.2-2.2-2.7-4.3-4.3-6.1
				c-3.5-4.2-7-8.4-10.6-12.6c-1.6-1.9-3.3-3.9-5.5-4.9c-3.8-1.8-8.6-0.4-11.8,2.4c-3.2,2.8-5.2,6.7-6.9,10.5
				c-2.9,6.5-5.4,13.2-7.4,20c-2.4-8.1-4.8-16.2-7.2-24.3c-1-3.4-2.2-7.1-5-9.3c-5.4-4.1-13.4-0.7-17.9,4.3
				c-4.5,5-7.5,11.6-12.9,15.5c-2-7.2-3.9-14.4-5.9-21.7c-0.6-2.1-1.2-4.3-2.5-6c-4-5.4-12.4-4.8-18.4-1.6c0.3-7.5-0.8-15.3-4.7-21.8
				c-3.9-6.4-11.1-11.2-18.6-11c-2.7,0.1-3.7-3.6-3.1-6.2c0.4-2.1,1.2-4.5,0.6-6.4c0-0.1,0-0.1,0-0.2c-0.1-0.5-0.2-1-0.2-1.5
				c0-0.5,0-1,0.1-1.4l0.1,0.2c0-0.2,0-0.4-0.1-0.6c0-1,0-2,0-3.1c0-0.2,0-0.3-0.1-0.4c0-1-0.1-2.1-0.2-3.1c0-0.7-0.1-1.4-0.4-2.1
				c-0.2-0.7-0.4-1.4-0.7-2.1c-3.5-18.7-12.6-36.4-25.9-49.9c-2.8-2.8,0.5-7.2,1.6-11c1.4-5.1-1.5-10.2-2.5-15.4
				c-1.1-6.1,0.6-12.3,0.8-18.5c0.5-13.3-6.5-26.8-18.1-33.1s-27.5-4.5-36.7,5.1c-10.1,10.6-10.5,27-7.9,41.4c1.5,8.7,4,17.5,9,24.8
				c4.7,7,11.6,12.4,19.4,15.4c2.4,0.9,2.1,4.3,1.4,6.7c-4.1,15.8-4,33.3,3.8,47.6c7.8,14.3,24.3,24.4,40.4,21.6
				c-5.5,5.7-6.7,14.2-7.7,22.1c-0.5,4-0.9,8.3,1.2,11.7c3.1,5,10,5.7,15.9,5.2c5.9-0.5,12.3-1.6,17.2,1.5c-4.1,0.5-6,6-4.3,9.9
				c1.7,3.8,5.5,6.2,9.2,8.1c4,2.1,8.1,4,12.3,5.7c6.6,2.7,14.5,4.8,20.7,1.1c0.1-0.1,0.3-0.2,0.4-0.3c0.6,1.2,1.4,2.3,2.2,3.4
				c1,1.3,2.3,2,3.7,2.6c3.4,3.7,8.4,6.1,13.4,6.9c7.4,1.2,14.9-0.5,22.2-2.2c2-0.5,4.2-1,6.1-0.3c2.1,0.7,3.6,2.7,5.5,3.9
				c3.1,2,7,1.9,10.7,1.4c7.7-0.9,15.3-2.9,22.4-5.9c3.3-1.4,6.7-3.3,8.3-6.5c0.8,0.1,1.4,1.2,1.9,1.8c0.4,0.5,0.9,0.8,1.4,1.1
				c1.9,1.2,4.3,1.8,6.5,1.6c3.5-0.3,6.8-1.9,9.9-3.5c3.1-1.6,6.3-3.2,9.4-4.8c3.3-1.7,6.7-3.4,9.4-6c5.6-5.4,7.2-14.4,3.8-21.4
				c7.2-0.2,14.5-0.4,21.7-0.6c2.9-0.1,5.9-0.2,8.5-1.6c6.5-3.5,6.7-12.6,5.2-19.8c-1.3-6.2-3.1-12.2-5.6-18
				c9.7,1.2,19.4-3.6,26.3-10.6c6.9-6.9,11.5-15.8,15.7-24.6c3-6.2,6-12.7,6.3-19.7c0.2-3.9-0.7-8-2.6-11.4c0-0.2,0-0.4-0.2-0.6
				c-1.9-2.6-3.9-5.2-5.8-7.8c1.1-3.3,6-4.3,9.5-5.9c9.1-4.4,9.5-16.8,13.2-26.2c1.8-4.8,4.7-9,6.7-13.7
				C413.6,401.4,411.4,385.1,401.6,375z M57.4,456.4c-7.9-4.7-13.5-12.6-16.9-21.2c-3.4-8.6-4.7-17.8-5.5-27
				c-0.3-3.2-0.4-6.7,1.3-9.3c1.4-2.2,1.5-5,2.1-7.6c2-8.9,10.4-15.5,19.3-16.8c9-1.3,18.2,2.3,25.1,8.2c2.8,2.4,5.2,5.2,6.8,8.5
				c4.9,10.1,0.7,22.1,2,33.2c0.6,5.5,2.6,10.9,2.5,16.5s-3.6,11.7-9.1,12.3c-4.5,0.5-9,2-12.8,4.5C67.9,460.5,62,459,57.4,456.4z
				M76.8,523.7c-8.4-8.9-12.5-21.2-13.6-33.3c-0.4-5-0.4-10.2,1-15c2.2-7.8,8.2-14.5,15.9-17.1s16.8-0.7,22.5,5.1
				c4.1,4.2,6.2,9.8,8.1,15.3c3.5,9.7,7,19.4,10.5,29.1c0,1.3-0.2,2.6-0.1,3.9c0,1.3,0.1,2.5,0.3,3.8c0,0.4,0,0.8,0,1.1
				c0,0.3,0.1,0.4,0.2,0.6c-1.4,2.1-1.2,5.4-1.9,8c-1.2,4.2-5.3,7-9.5,8.4C98.6,537.3,85.3,532.6,76.8,523.7z M128.5,571.9
				c-3.9,0.2-7.7,1.1-11.6,1.3c-3.9,0.2-8-0.2-11.2-2.5c-1.1-0.8-2-1.8-2.5-3c-0.5-1.2-0.5-2.6-0.4-4c0.1-2.6,0.4-5.2,0.8-7.8
				c0.7-4.5,1.7-9,3.9-13c2.1-4,5.5-7.5,9.8-9c3.7-1.3,7.8-1,11.7-0.2c2.1,0.4,4.3,0.9,6.2,1.9c5.3,2.7,8.2,8.5,10.1,14.2
				c1.4,4.2,2.3,9.1-0.2,12.7c-0.9,1.4-2.3,2.4-3.6,3.4C137.6,568.7,133.4,571.7,128.5,571.9z M169.3,600.1c-2.6,2-6.3,1.4-9.4,0.3
				c-3.1-1.1-6.2-2.7-9.4-2.5c-1.1,0-2.1-0.6-3.1-1.2c-4.1-2.6-8.2-5.2-12.3-7.8c-1.1-0.7-2.2-1.5-2.6-2.7c-0.2-0.8,0-1.7,0.2-2.5
				c1.9-6.4,6.5-11.8,12.3-15.1c3.4-2,7.3-3.2,11.1-4.4c3.6-1.2,7.7,1,9.9,4.1c2.2,3.1,3,7,3.8,10.8c0.6,2.9,1.2,5.8,1.8,8.6
				C172.3,592,172.8,597.5,169.3,600.1z M213.6,609.9c-1.2,1-2.7,1.4-4.3,1.7c-12.1,2-25.1-1.3-34.7-9.1c0.1,0.2,0.2,0.4,0.2,0.6
				c-0.4-0.6-0.7-1.2-1-1.9c1.7-1.5,3.1-3.3,4.5-5.1c3.9-5.1,7.9-10.3,11.8-15.4c3.3-4.3,8.3-9.1,13.3-6.9c3.2,1.4,4.5,5.1,5.5,8.5
				l5.4,17.8C215.4,603.4,216.2,607.6,213.6,609.9z M263.3,604.2c-0.8,4.3-5.6,6.5-9.8,7.5c-8.2,2-16.8,2.5-25.2,1.6
				c-2.2-0.3-4.8-0.8-5.8-2.8c-0.9-1.8-0.3-3.9,0.4-5.8c2.6-7,5.5-13.9,8.8-20.6c2-4.2,5.2-8.9,9.9-8.6c3.1,0.2,5.5,2.7,7.6,5.1
				c4.6,5.2,9.1,10.6,12.5,16.6C262.7,599.3,263.8,601.7,263.3,604.2z M307.3,584.9c-0.6,6.3-6.5,10.4-11.9,13.8
				c-7.6,4.7-16.4,9.5-24.9,8.1c-0.5-0.4-0.9-1-1.3-1.4c-0.5-0.6-1.1-1.1-1.9-1.3c0.1-0.5,0.2-1,0.2-1.5c0.1-0.2,0.2-0.5,0.2-0.7
				c-0.7-4.5,1-8.8,1.1-13.3c0-0.2,0-0.3-0.1-0.5c1.1-3.5,1.5-7.3,2.5-10.9c1.4-5,4.7-10.2,9.8-11c2.5-0.4,5,0.4,7.4,1.2
				c4.4,1.4,9,2.9,12.7,5.7C305,575.8,307.8,580.3,307.3,584.9z M341.2,552.6c1.2,6.3,1.5,14.2-3.9,17.7c-3.6,2.3-8.1,1.6-12.4,1.4
				c-5.1-0.1-10.3,0.7-15.3-0.3c-3.8-0.7-7.6-3-9.4-6.2c-0.1-3.1,0-6.3,0.3-9.4c0-0.1,0-0.2,0-0.3c0.1-0.1,0.1-0.3,0.1-0.5
				c-0.1-1.1-0.2-2.2-0.3-3.3c0-0.1,0-0.2-0.1-0.3c0.6-4.5,2.1-9,4.6-12.8c0.7-1.1,1.5-2.3,1.8-3.6c0.6-0.4,1.2-0.9,1.7-1.5
				c0.4-0.4,0.5-0.9,0.9-1.4c0.6-0.8,1.3-1,2.1-1.5c0.7-0.5,1.1-1.1,1.5-1.7c1.1-0.9,1.8-1.6,3.3-2c0.2-0.1,0.4-0.2,0.5-0.3
				c6-1.7,12.9,1.3,17,6.2C338,538.3,339.8,545.5,341.2,552.6z M382.6,468.6c1.4,3.5,1.9,7.4,1.7,11.2c-0.4,6.3-2.8,12.4-5.4,18.2
				c-3.7,8.3-8.1,16.5-14.6,22.8c-6.5,6.3-15.6,10.5-24.6,9.4c-9-1.1-17.4-8.4-18-17.5c-0.4-6.1,2.6-11.7,4.5-17.5
				c2.8-8.4,3.4-17.4,6.4-25.7s9.3-16.4,18-17.6c6.4-0.9,12.7,2,18.6,4.8c2.4,1.2,4.8,2.3,7.2,3.5c0,0.1,0.1,0.1,0.1,0.2
				C378.5,463.1,380.6,465.9,382.6,468.6z M404.8,414.5c-1.5,2.8-3.3,5.4-4.7,8.2c-4.7,9.8-4,23-13,29c-5.7,3.8-13.4,2.9-19.9,0.8
				c-7.7-2.5-15.5-7.4-17.9-15.2c-3.1-10.3,4.3-22,0.1-31.9c-2.3-5.2-0.2-11.2,2.4-16.3c3.6-6.8,8.6-13.2,15.4-16.7
				c11.1-5.8,25.9-2.5,34.1,6.9S410.6,403.4,404.8,414.5z"/>
			<path id="XMLID_79_" fill="#010101" d="M76.3,413.6l0.3-0.2c-0.9-2.2-2.4-4.9-4.8-4.9c0.9,2.4,2.2,4.6,3.8,6.5
				C76.2,415.1,76.7,414.1,76.3,413.6z"/>
			<path id="XMLID_75_" fill="#010101" d="M101.2,492c-1.5,0.6-3,1.2-4.5,1.8c-1.2,0.5-1.8,2-1.7,3.3s0.8,2.5,1.5,3.7
				c-0.2-1.3,1-2.7,2.3-2.7C99.6,496.1,100.4,494,101.2,492z"/>
			<path id="XMLID_72_" fill="#010101" d="M378.4,399.1c0.9-0.9,1.3-2.2,1.7-3.4c1.1-3.5,2.3-7,3.4-10.5c-2-0.6-3.7,1.6-4.6,3.5
				c-1.7,3.5-3,7.3-3.8,11.1C376.1,400.5,377.5,400,378.4,399.1z"/>
			<path id="XMLID_68_" fill="#010101" d="M358.2,479.7c0.2-0.2,0.3-0.5,0.4-0.8c1.6-4,3.1-8.1,4.7-12.1c-1.2-0.9-3,0.3-3.5,1.8
				c-0.5,1.4-0.4,3.1-1.1,4.4c-0.5,1-1.4,1.8-2.1,2.6c-0.7,0.9-1.3,2-1,3.1S357.4,480.6,358.2,479.7z"/>
			<path id="XMLID_66_" fill="#010101" d="M58.2,407.8c-1.5-0.2-2.8,0.9-3.9,1.9c-0.9,0.8-1.8,1.7-2.6,2.5c-1,1-1.8,3.1-0.4,3.4
				c2.4-2,5-3.6,7.9-4.7C60.5,410.3,59.7,407.9,58.2,407.8z"/>
			<path id="XMLID_61_" fill="#010101" d="M86.9,492.7c2.8-4.6,3.3-10.5,1.3-15.5c-0.5-1.3-2.1-2.8-3.1-1.7
				c1.8,5.8,1.7,12.2-0.5,17.9C84.8,494.4,86.4,493.6,86.9,492.7z"/>
		</g>
	</g>
	<g class="toothLabels">
		<text id="lblT" data-key="T" data-disabled="false" transform="matrix(1 0 0 1 109.31 423.6409)" font-family="'Avenir-Heavy'" font-size="24px">T</text>
		<text id="lblS" data-key="S" data-disabled="false" transform="matrix(1 0 0 1 126.7426 490.0023)" font-family="'Avenir-Heavy'" font-size="24px">S</text>
		<text id="lblR" data-key="R" data-disabled="false" transform="matrix(1 0 0 1 146.5064 533.043)" font-family="'Avenir-Heavy'" font-size="24px">R</text>
		<!-- <text id="lblQ" data-key="17" data-disabled="true" transform="matrix(1 0 0 1 168.0594 560.1663)" font-family="'Avenir-Heavy'" font-size="21px">Q</text>
		<text id="lblP" data-key="17" data-disabled="true" transform="matrix(1 0 0 1 201.0274 564.6503)" font-family="'Avenir-Heavy'" font-size="21px">P</text>
		<text id="lblO" data-key="17" data-disabled="true" transform="matrix(1 0 0 1 229.0002 564.6497)" font-family="'Avenir-Heavy'" font-size="21px">O</text>
		<text id="lblN" data-key="17" data-disabled="true" transform="matrix(1 0 0 1 261.966 560.167)" font-family="'Avenir-Heavy'" font-size="21px">N</text> -->
		<text id="lblM" data-key="M" data-disabled="false" transform="matrix(1 0 0 1 274.6497 533.0432)" font-family="'Avenir-Heavy'" font-size="24px">M</text>
		<text id="lblL" data-key="L" data-disabled="false" transform="matrix(1 0 0 1 301.4584 490.002)" font-family="'Avenir-Heavy'" font-size="24px">L</text>
		<text id="lblK" data-key="K" data-disabled="false" transform="matrix(1 0 0 1 318.6671 423.6405)" font-family="'Avenir-Heavy'" font-size="24px">K</text>
	</g>
</svg>
