<svg version="1.1" xmlns="http://www.w3.org/2000/svg" xmlns:xlink="http://www.w3.org/1999/xlink" x="0px" y="0px"
	 viewBox="0 0 450 350" enable-background="new 0 0 450 350" xml:space="preserve">
	<g class="toothLabels">
		<text id="lblJ" data-key="J" data-disabled="false" transform="matrix(1 0 0 1 326.1867 278.9355)" font-family="'Avenir-Heavy'" font-size="24px">J</text>
		<text id="lblI" data-key="I" data-disabled="false" transform="matrix(1 0 0 1 308.6669 224.1667)" font-family="'Avenir-Heavy'" font-size="24px">I</text>
		<text id="lblH" data-key="H" data-disabled="false" transform="matrix(1 0 0 1 280.8936 185.2723)" font-family="'Avenir-Heavy'" font-size="24px">H</text>
		<!-- <text id="lblG" data-key="G" data-disabled="true" transform="matrix(1 0 0 1 256.5099 157.1388)" font-family="'Avenir-Heavy'" font-size="24px">G</text>
		<text id="lblF" data-key="F" data-disabled="true" transform="matrix(1 0 0 1 230.6667 151.667)" font-family="'Avenir-Heavy'" font-size="24px">F</text>
		<text id="lblE" data-key="E" data-disabled="true" transform="matrix(1 0 0 1 196.0272 151.6668)" font-family="'Avenir-Heavy'" font-size="24px">E</text>
		<text id="lblD" data-key="D" data-disabled="true" transform="matrix(1 0 0 1 166.0594 157.1387)" font-family="'Avenir-Heavy'" font-size="24px">D</text> -->
		<text id="lblC" data-key="C" data-disabled="false" transform="matrix(1 0 0 1 147.1964 185.2724)" font-family="'Avenir-Heavy'" font-size="24px">C</text>
		<text id="lblB" data-key="B" data-disabled="false" transform="matrix(1 0 0 1 121.5838 224.1666)" font-family="'Avenir-Heavy'" font-size="24px">B</text>
		<text id="lblA" data-key="A" data-disabled="false" transform="matrix(1 0 0 1 109.31 278.9357)" font-family="'Avenir-Heavy'" font-size="24px">A</text>
	</g>
	<g class="spots">
		<polygon id="ToothJ" fill="#FFFFFF" data-key="J" data-disabled="false" points="384.3,231.2 391.3,232.5 402.3,241.5 409,253.8 414.3,267.2 416,281.8 413.7,300.2
			409.3,308.8 400.3,314.5 386,317.2 375,314.8 367.3,310.5 358.7,303.5 353.7,291.5 353.7,277.8 354.7,267.8 350.3,259.8
			351.7,248.2 357.7,239.5 367.7,237.5 	"/>
		<polygon id="ToothI" fill="#FFFFFF" data-key="I" data-disabled="false" points="359.3,167.2 367.3,169.8 375.3,182.5 384,199.8 389.7,211.8 389.3,220.5 386,227.5
			377.3,233.5 363.3,238.5 355.3,237.5 348.3,233.2 343.3,224.8 337,211.5 330.7,195.8 328,186.8 332.7,175.2 342.7,168.5 	"/>
		<polygon id="ToothH" fill="#FFFFFF" data-key="H" data-disabled="false" points="305.7,136.5 303,143.8 301,150.5 304,161.5 313,170.2 323,172.8 331.7,172.5
			339.3,168.8 346,162.5 350.3,152.2 351.3,141.2 347.3,134.5 343,132.2 334,131.5 322.3,130.2 316,129.8 	"/>
		<polygon id="ToothG" fill="#DDDDDD" data-key="G" data-disabled="true" points="277.3,98.8 276.7,107.2 276,119.2 276,129.5 279.7,138.2 285.7,141.2 293.3,141.5
			301.7,135.8 316.7,126.8 320,122.5 320,116.2 316.3,109.8 301.7,101.8 294.7,98.8 282,97.5 	"/>
		<polygon id="ToothF" fill="#DDDDDD" data-key="F" data-disabled="true" points="222,87.5 222.7,93.8 226.7,98.2 231,107.8 236.7,121.5 242,125.8 248,126.8 257,120.2
			275.3,101.5 276,95.2 273.7,92.2 266,85.8 248.7,80.5 236.3,80.2 229,81.8 	"/>
		<polygon id="ToothE" fill="#DDDDDD" data-key="E" data-disabled="true" points="168.3,94.5 172,103.5 175.3,107.5 184,120.5 190.3,127.5 198.7,128.5 203.3,124.8
			209.7,115.2 219.7,92.5 218.7,85.8 209,83.8 191.3,82.5 182,84.2 173.7,88.2 	"/>
		<polygon id="ToothD" fill="#DDDDDD" data-key="D" data-disabled="true" points="123.7,124.2 131.3,131.2 143.3,137.5 151.3,141.8 159,142.5 165.7,137.5 169.3,125.8
			169,108.8 169.7,100.2 165,95.5 158.3,95.2 145.7,97.8 138.7,102.5 130,108.2 124.3,114.2 	"/>
		<polygon id="ToothC" fill="#FFFFFF" data-key="C" data-disabled="false" points="106.7,132.2 118,132.2 130.3,132.5 139.7,138.2 144.7,147.8 144.7,160.8 134.3,173.8
			121.7,180.2 115,180.2 107.7,174.5 100,169.8 98.7,156.8 97.3,147.8 98.3,138.8 104.7,133.2 	"/>
		<polygon id="ToothB" fill="#FFFFFF" data-key="B" data-disabled="false" points="90.2,242.2 97.3,236.1 106.3,224.2 114.9,200.1 117.3,189.4 113,179.1 95.7,169.8
			86.2,169.8 71.9,179.1 63.5,191.3 58.6,202.5 54,215.2 55.8,227.2 65.8,238.9 79.1,242.2 	"/>
		<polygon id="ToothA" fill="#FFFFFF" data-key="A" data-disabled="false" points="55.2,236.1 60,237.2 69.8,240.2 86.9,243.3 92,247 95.7,255.8 95.7,271.2 94.7,286.5
			90.2,305.2 82.8,312.8 72,318.5 56.7,319.3 48.8,317.5 40.8,311.5 33,300.3 31.3,284.7 34.2,273.8 39.3,256.3 42.3,248 	"/>
	</g>
	<g class="child-outlines">
		<g id="XMLID_9_">
			<path id="XMLID_167_" fill="#010101" d="M67.9,257.2c0.1-0.5-0.5-1-0.9-0.8l0-0.1c-0.4,0.6-0.4,1.4,0,2
				C67.4,258,67.8,257.7,67.9,257.2z"/>
			<path id="XMLID_145_" fill="#010101" d="M391.2,293.4c0.2,0.6,1.1,1.1,1.6,0.6c1.1-0.9,0.1-3.1-1.3-2.9l0,0.4
				C391.3,292.1,391,292.8,391.2,293.4z"/>
			<path id="XMLID_144_" fill="#010101" d="M90.4,191.3c-0.6,0.7,0.3,1.9,1.3,2l0.2-0.2c0.9,0.9,2.7-0.8,1.8-1.8
				C92.6,191.3,91.5,191.3,90.4,191.3z"/>
			<path id="XMLID_138_" fill="#010101" d="M155.2,105.8c-0.6-1.3-2.3-2-3.6-1.5l0,0.1c-1,0.3-1.7,1.4-1.4,2.4
				C151.9,107,153.7,106.7,155.2,105.8z"/>
			<path id="XMLID_137_" fill="#010101" d="M82.5,186.8c0.6,1.3,1.5,2.4,2.7,3.2l0,0.1c0.6-0.1,1.1-0.3,1.7-0.4
				C86.3,188,84.4,186.7,82.5,186.8z"/>
			<path id="XMLID_136_" fill="#010101" d="M361.4,216.8l0.5-0.8c2.1-0.5,2-4.2-0.1-4.6C360.5,212.9,360.4,215.2,361.4,216.8z"/>
			<path id="XMLID_134_" fill="#010101" d="M386.1,264.8c-0.5,1.9,0.5,4.2,2.3,5.1c0.7,0.1,1.3-0.9,0.8-1.4l0.1,0
				C388.2,267.3,387.2,266,386.1,264.8z"/>
			<path id="XMLID_116_" fill="#010101" d="M417.3,277.6c0-1.2-0.2-2.7-0.6-3.8c0.3-2.8-0.4-5.4-1.4-8c-0.3-2.5-1.1-4.9-2.4-7
				c-0.3-1-0.7-2-1.2-2.9c0-0.1,0-0.1,0-0.2c0-1.1-0.5-2.2-0.9-3.2c-1.9-4.4-3.9-8.9-7.1-12.6c-2.6-3-6-5.2-9.3-7.4
				c-0.6-0.4-1.3-0.8-2-1c-1.8-1.3-4.3-1.9-6.7-2c4.1-4.4,6.7-10.2,6.1-16.2c-0.5-4.5-2.6-8.6-4.8-12.6c-3.2-6-6.5-12-9.7-18.1
				c-3.1-5.7-6.3-11.6-11.6-15.2c-4.5-3-10.9-3.8-15.3-1.1c-2.1,0.4-4.3,0.6-6.5,0.7c5-6,8.2-13.4,9-21.2c0.3-3.7-0.3-8.1-2.4-11
				c0,0,0,0,0,0c-0.2-0.4-0.4-0.6-0.7-0.9c-0.3-0.3-0.7-0.6-1-0.9c-0.6-0.7-1.1-1.2-2-1.6c-2.4-1.1-5.4-1-8-0.8
				c-0.2,0-0.3,0.1-0.5,0.1c-6.5-1.4-13.2-2.3-19.9-2.6c3.8-2.9,4.7-8.5,3-13c-1.7-4.5-5.4-7.9-9.4-10.6c-9.6-6.5-21.5-9.8-33.1-9
				c-12.2-16.7-37.4-22.3-55.4-12.2c-2.3,1.3-5.2,0.7-7.8,0c-15.6-3.7-34-4.8-45.5,6.4c-1.9,1.9-4.1,4.3-6.8,4
				c-10.6-1.1-20.7,4.2-29.6,10.1c-4.8,3.2-9.7,6.9-11.7,12.2c-2,5.4,0.3,12.7,5.9,14c-7.3,3.3-16.2-2.3-23.6,0.8
				c-6.7,2.8-8.8,11.3-8.3,18.5c0.2,3.3,0.9,6.6,1.8,9.8c0.5,3.3,0.9,6.5,1.3,9.8c-5.2-1.3-10.7-1.2-15.8,0.6
				C68,175,60.5,191.7,54.8,206.8c-1.1,2.8-2.2,5.7-2.4,8.8c-0.5,6.9,3.4,13.3,7.2,19.1c-7.9,1.9-14.9,7.2-19.2,14.1c0,0,0,0-0.1,0.1
				c-0.5,0.8-0.9,1.6-1.2,2.4c-3.5,4.8-3.7,12.4-4.2,17.9c0,0.2,0,0.3,0.1,0.5c-8.1,13.7-6.4,33,5.3,43.9
				c13.3,12.3,37.4,10.5,47.8-4.3c5.8-8.1,7.2-18.5,8.5-28.3c1.3-10.4,2.6-21.4-1.6-31c-1.3-2.9-2.9-6.7-0.5-8.8
				c10.6-9.8,18-23,20.8-37.2c0.2-0.1,0.3-0.3,0.4-0.6c1.5-4.8,1.9-9.2,1.7-13.9c0.3-2.4,0-4.8-0.9-7c10,0.5,20.1-4.5,25.6-12.8
				c5.6-8.3,6.4-19.5,2.1-28.6c7.7,5.9,20.5,2.9,24.8-5.8c4.4-8.8,0.5-20.3,4.3-29.1c1.8,2.6,3.4,5.3,5,8.1c0,0.1,0.1,0.1,0.1,0.2
				c1.7,4,3.7,7.8,6.8,10.8c4.5,4.4,11.8,6.5,17.1,3.2c3.2-2,5.1-5.5,6.8-8.9c4.1-8.3,7.9-16.8,11.4-25.4c5,3.1,7.5,8.9,9.4,14.5
				c1.9,5.6,3.6,11.5,7.7,15.7c4.1,4.2,11.6,5.7,15.7,1.5c5.2-5.3,10.4-10.6,15.5-15.9c2.1-2.2,4.3-4.4,6.7-6.2c0.1,2,0,4-0.3,6
				c-0.2,1.5,0.1,2.8,0.1,4.2c-1,4.7-1.1,9.6-0.3,14.4c1,6.2,4.3,12.8,10.3,14.6c6.2,1.9,12.6-2.1,17.9-5.8
				c-2.7,7.5-4.1,15.9-1.7,23.5c2.5,7.6,9.8,14,17.8,13.3c4.4-0.4,10.9-1.4,11.4,2.9c0.1,1.3-0.5,2.6-1,3.8
				c-4.9,11.6,1.5,24.4,8.6,35.2c0,0.1,0,0.2,0,0.3c0.3,2.1,0.8,4.1,1.5,6c0,0-0.1,0.1-0.1,0.1c1.2,5.3,4.7,10.1,9.4,13
				c3,1.8,7.1,5,4.9,7.7c-5.4,6.9-5.8,17.2-1.2,24.6c0.3,1.4,0.4,2.8,0.3,4.2c-0.6,1.6-0.7,3.4-0.4,5.1c-0.1,0.1-0.2,0.3-0.2,0.4
				c-0.2,0.2-0.3,0.5-0.2,0.8c0.4,2.6,0.5,5.3,0.5,7.9c0,0.1,0,0.2,0,0.2c-0.8,4.8,0.2,9.9,2.6,14.2c3,5.4,7.8,9.6,13.1,12.7
				c6.7,3.9,14.4,6.1,22,5.6c7.7-0.5,15.3-4,20-10C417.2,300.2,417.4,288.5,417.3,277.6z M94.6,268.4c-0.7,5.7-1.3,11.4-2,17.2
				c-0.6,5-1.2,10-3,14.6c-5,12.8-19.9,20.9-33.4,18.2c-13.5-2.8-24-16.1-23.5-29.8c0.2-6.9,2.8-13.4,4.8-20c0.1-0.1,0.1-0.2,0.1-0.4
				c0.1-0.4,0.3-0.9,0.4-1.3c0.1-0.1,0.2-0.3,0.2-0.5c0-0.1,0-0.2,0-0.3c0-0.1,0-0.2,0.1-0.3c0.7-0.3,0.7-1.3,0.1-1.7
				c0.2-1.7,0.4-3.5,0.7-5.2c0.2-0.5,0.3-1.1,0.5-1.5c1-3.1,2.8-6.5,4.8-9.2c1.5-1.5,2.8-3.8,4.2-5.4c3.2-3.7,8.8-4.3,13.6-3.4
				s9.3,3,14.2,3.8c4,0.7,8.3,0.5,11.9,2.4C95.6,249.7,95.6,260.1,94.6,268.4z M113.3,202.6c-2,5.1-4,10.1-6,15.2
				c-2.1,5.3-4.3,10.6-8,14.9c-5.8,6.6-15.3,9.7-23.8,7.8c-8.6-1.9-15.9-8.6-18.4-17c-3.8-12.8,3-26.2,10.9-36.9
				c2.8-3.8,5.8-7.6,9.7-10.3c6.9-4.8,16.4-5.7,24.1-2.3c6,2.7,10.7,7.9,13.1,14C115.1,192.9,114.9,197.6,113.3,202.6z M143,160.1
				c-2.2,6.5-7.1,11.8-12.9,15.5c-3.9,2.5-8.6,4.3-13.1,3.2c-3.6-1-6.4-3.7-9.5-5.8c-1.8-1.2-3.8-2.2-5.8-2.9
				c-0.7-5.7-1.5-11.4-2.4-17.1c0.1-3.7,0.4-7.3,0.8-10.9c0.2-2.1,0.6-4.5,2.1-6c1.5-1.5,3.7-1.8,5.8-2c11.3-1.4,24.6-2,31.9,6.6
				C144.3,145.9,145.1,153.6,143,160.1z M168.6,106.4c-0.1,3.5-0.3,7-0.4,10.5c-0.2,5.8-0.4,11.7-2.5,17.1c-1.4,3.7-4.4,7.4-8.4,7.4
				c-1.1,0-2.1-0.3-3.2-0.7c-3-1-5.9-2.2-8.7-3.5c-5.1-2.4-10-5.2-14.6-8.4c-2.1-1.5-4.3-3.1-5.5-5.4c-1.2-2.3-1.4-5.4,0.3-7.3
				c6.6-7.5,15-13.4,24.2-17.2c4.1-1.7,8.6-3,13-2.1c1.5,0.3,2.9,0.8,3.9,1.9C168.7,100.6,168.7,103.7,168.6,106.4z M217.1,93.2
				c-3,7.1-6,14.1-9,21.2c-2.6,6.1-7,13.4-13.6,12.7c-7.5-0.8-9.7-10.8-15.2-15.9c-1.5-2.4-3-4.8-4.5-7.2c-0.2-0.4-0.6-0.5-0.9-0.6
				c-3.6-2.5-3.5-8.7-0.6-12.1c3.2-3.7,8.2-5,13-5.8c8.1-1.3,16.4-1.5,24.6-0.6c3,0.3,6.6,1.4,7.1,4.3
				C218.2,90.5,217.7,91.9,217.1,93.2z M269.6,105.4c-5.2,5.1-10.5,10.2-15.7,15.3c-2.3,2.2-4.9,4.6-8.1,4.5
				c-4.4-0.1-7.2-4.6-9.1-8.5c-2-4-4-8.1-5.5-12.3c-0.9-2.7-1.6-5.5-3.2-7.9c-1.5-2.2-3.7-4.2-3.8-6.8c-0.1-2.1,1.3-4.1,3-5.3
				c1.8-1.2,3.9-1.6,6-2c11.7-1.8,23.9,0.2,34.4,5.8c3.4,1.8,6.9,4.5,7.1,8.3C274.8,100.1,272.1,103,269.6,105.4z M296.2,137.6
				c-2.7,1.6-5.6,3.2-8.7,2.9c-6.1-0.5-9.4-7.7-9.6-13.8c-0.1-3.9,0.4-7.9,0.2-11.8c0.1-0.1,0.1-0.3,0.1-0.4c0.1-2-0.3-3.8,0-5.9
				c0.3-2.1,0.3-4.1,0.2-6.2c0-0.2-0.1-0.4-0.3-0.5c1.4-0.9,2.9-1.6,4.5-2.1c11-3.5,22.1,4.2,31.1,11.4c2.6,2.1,5.4,4.6,5.4,7.9
				c0,3.7-3.4,6.3-6.5,8.3C307.1,131,301.7,134.4,296.2,137.6z M319.4,170.8c-9.9-2.4-17.6-12.5-16.5-22.6
				c1.1-10.1,11.4-18.5,21.5-16.8c4.4,0.7,9.4,2.9,13.4,2.4c0.2,0.1,0.4,0.2,0.7,0.1c1.9-0.1,4.2-0.3,6.1,0.3
				c1.1,0.4,1.3,0.9,2.1,1.6c0.3,0.2,0.9,0.5,1,0.8c0.2,0.3,0.4,0.5,0.6,0.7c2.4,7.4,1.5,15.8-2.6,22.3
				C340.3,168.2,329.3,173.2,319.4,170.8z M345.4,226.6c-0.5-1.4-0.9-2.9-1.9-4c-0.1-0.1-0.3-0.3-0.4-0.4c0-0.1,0-0.1,0-0.2
				c-0.7-1.9-1-4-1.7-5.9c-0.2-0.5-0.4-1.1-0.7-1.6c0-0.1,0-0.1,0-0.2c0.1-0.5-0.2-0.8-0.5-0.9c-0.2-0.3-0.4-0.7-0.6-1
				c-0.4-1.3-0.9-2.6-1.5-3.8c-3.1-7-6.3-14.1-9.4-21.1c2.9-3.2,4.7-7.4,5-11.7c3-1.7,5.7-3.9,8.1-6.4c4.5,0,8.6-0.8,13-1.7
				c0,0,0.1,0,0.1,0c4.9,0.3,9.8,2.5,13.1,6.2c2.2,2.4,3.7,5.3,5.2,8.2c3.5,6.6,7,13.2,10.5,19.8c3.3,6.2,6.7,13.5,3.8,20
				c-1.2,2.7-3.4,4.9-5.7,6.8c-5.5,4.6-12.2,8.2-19.3,8.4C355.5,237.2,348,233.3,345.4,226.6z M414.2,283.8
				c-0.2,5.7-0.3,11.6-2.6,16.9c-3.5,8-11.8,13.5-20.5,14.6c-8.7,1.1-17.6-1.9-24.6-7.2c-6.3-4.7-11.3-11.8-11.5-19.7
				c0-1.1,0-2.4-0.2-3.5c0.1-0.1,0.2-0.3,0.3-0.5c0.5-2.2,0.7-4.3,0.7-6.5c0.7-3.8,1.6-7.9-0.2-11.2c-0.1-0.2-0.2-0.3-0.3-0.3
				c-0.1-0.4-0.3-0.8-0.5-1.1c-3.9-7.6-2.5-17.5,3.4-23.7c8-1.3,16.1-3.1,22.8-7.6c0.6-0.4,1.1-0.8,1.7-1.2c0.3,0.2,0.6,0.2,1,0
				c1.1-0.7,2.9,0,4.1,0.3c0.8,0.2,1.6,0.3,2.3,0.5c0,0,0,0,0,0.1c5.7,2.5,10.2,7.1,13.6,12.3c1.8,2.7,3.3,5.6,4.7,8.6
				c-0.3,0.4-0.2,1,0.4,1.3c0.1,0,0.2,0.1,0.3,0.2c1,2.2,1.9,4.4,2.8,6.6l1.6,3.9c0,0,0,0,0,0.1c0,3.1,0.4,6.2,1.1,9.3
				c0,0.2,0.1,0.3,0.2,0.4C414.3,278.7,414.3,281.3,414.2,283.8z"/>
			<path id="XMLID_78_" fill="#010101" d="M366.2,207.5c1.4,0.5,3,0.2,4.2-0.8c-0.6-1.7-2.6-2.7-4.4-2.3c0.1-1.1-0.5-2.2-1.5-2.8
				c-0.6,2.1-0.9,4.3-0.9,6.5c0.8,0.2,1.8,0,2.4-0.7L366.2,207.5z"/>
			<path id="XMLID_77_" fill="#010101" d="M134,117.5c0.3,0,0.5-0.1,0.7-0.3c4.2-2.6,8.5-5.2,12.7-7.8c1.1-0.7,2.4-2.1,1.6-3.1
				c-5.6,1.8-10.7,4.9-14.9,8.9C133.4,115.9,133,117.4,134,117.5z"/>
			<path id="XMLID_76_" fill="#010101" d="M66.4,278.5c0.5-0.1,0.9-0.1,1.4-0.2c0.1-5.3,9.1-6.1,10.1-11.3c-1-0.4-2.2,0.3-3.1,0.9
				c-1.6,1.1-3.2,2.1-4.8,3.2c-1.3,0.9-2.6,1.8-3.5,3.1C65.7,275.4,65.5,277.3,66.4,278.5z"/>
			<path id="XMLID_74_" fill="#010101" d="M64.2,264.8c-4.4,3.1-8.4,6.7-11.7,10.9c3.8-1.2,7.4-3.2,10.3-6
				C64.2,268.5,65.5,266.2,64.2,264.8z"/>
			<path id="XMLID_71_" fill="#010101" d="M372.2,251.4c1.3,2.2,2.7,4.5,3.1,7.1c0.4,2.6-0.3,5.5-2.4,7c0,1.3,2.2,1.1,2.9,0
				c0.7-1.1,0.8-2.7,1.9-3.4c0.5-0.3,1.1-0.4,1.6-0.8c0.4-0.4,0.5-1.1,0.6-1.7C380,255.4,376.3,251.5,372.2,251.4z"/>
			<path id="XMLID_69_" fill="#010101" d="M194.1,93.7c0.6-0.1,1.3-0.3,1.7-0.8c0.4-0.5,0.3-1.4-0.3-1.6c-5.5-1.9-12-0.5-16.3,3.4
				C184.2,95.1,189.2,94.7,194.1,93.7z"/>
			<path id="XMLID_65_" fill="#010101" d="M381.6,281.6c-0.7,0.4-1.3,0.8-1.9,1.3c1.3-0.1,2.7,0.2,3.8,0.9c2.3,1.4,4.4,4.3,7,3.5
				C390.8,283.1,385.4,279.7,381.6,281.6z"/>
			<path id="XMLID_64_" fill="#010101" d="M262,97.4c-0.7-1.9-2.9-2.6-4.9-3.2c-2.7-0.7-5.5-1.5-8.2-2.2c-0.9-0.2-1.8-0.5-2.6-0.2
				c-0.8,0.3-1.5,1.3-1,2.1C250.7,91.9,256.3,98.7,262,97.4z"/>
			<path id="XMLID_63_" fill="#010101" d="M75.5,208.2c-1.7-0.1-4,0.9-3.4,2.4c5,0.3,9.9,1.9,14.1,4.5
				C85.2,210.7,80.1,208.5,75.5,208.2z"/>
			<path id="XMLID_62_" fill="#010101" d="M358.7,193c-1.7,1-2.3,3-2.7,4.9c-0.4,1.5-0.7,3-1.1,4.5c0.9,0.4,1.8-0.4,2.5-1.2
				c1.4-1.6,2.9-3.2,4.3-4.8c0.3-0.4,0.6-0.7,0.8-1.2C363.1,193.4,360.3,192,358.7,193z"/>
		</g>
	</g>
</svg>
