<svg version="1.1" xmlns="http://www.w3.org/2000/svg" xmlns:xlink="http://www.w3.org/1999/xlink" x="0px" y="0px"
	 viewBox="0 0 450 350" enable-background="new 0 0 450 350" xml:space="preserve">
	<g class="toothLabels">
		<text id="lbl17" data-disabled="false" transform="matrix(1 0 0 1 324.0004 402.1405)" font-family="'Avenir-Heavy'" font-size="21px">17</text>
		<text id="lbl16" data-disabled="false" transform="matrix(1 0 0 1 312.8534 324.1021)" font-family="'Avenir-Heavy'" font-size="21px">16</text>
		<text id="lbl15" data-disabled="false" transform="matrix(1 0 0 1 315.3335 275.3333)" font-family="'Avenir-Heavy'" font-size="21px">15</text>
		<text id="lbl14" data-disabled="false" transform="matrix(1 0 0 1 311.3335 236)" font-family="'Avenir-Heavy'" font-size="21px">14</text>
		<text id="lbl13" data-disabled="false" transform="matrix(1 0 0 1 300.3335 200.6667)" font-family="'Avenir-Heavy'" font-size="21px">13</text>
		<text id="lbl12" data-disabled="false" transform="matrix(1 0 0 1 286.6669 172)" font-family="'Avenir-Heavy'" font-size="21px">12</text>
		<text id="lbl11" data-disabled="false" transform="matrix(1 0 0 1 270.2269 142.439)" font-family="'Avenir-Heavy'" font-size="21px">11</text>
		<text id="lbl10" data-disabled="false" transform="matrix(1 0 0 1 247.5099 118.9722)" font-family="'Avenir-Heavy'" font-size="21px">10</text>
		<text id="lbl9" data-disabled="false" transform="matrix(1 0 0 1 227.8432 112.9722)" font-family="'Avenir-Heavy'" font-size="21px">9</text>
		<text id="lbl8" data-disabled="false" transform="matrix(1 0 0 1 200.1766 112.9722)" font-family="'Avenir-Heavy'" font-size="21px">8</text>
		<text id="lbl7" data-disabled="false" transform="matrix(1 0 0 1 170.5099 117.6388)" font-family="'Avenir-Heavy'" font-size="21px">7</text>
		<text id="lbl6" data-disabled="false" transform="matrix(1 0 0 1 148.6667 134.167)" font-family="'Avenir-Heavy'" font-size="21px">6</text>
		<text id="lbl5" data-disabled="false" transform="matrix(1 0 0 1 131.3605 164.8335)" font-family="'Avenir-Heavy'" font-size="21px">5</text>
		<text id="lbl4" data-disabled="false" transform="matrix(1 0 0 1 119.3927 195.6387)" font-family="'Avenir-Heavy'" font-size="21px">4</text>
		<text id="lbl3" data-disabled="false" transform="matrix(1 0 0 1 103.8631 234.4391)" font-family="'Avenir-Heavy'" font-size="21px">3</text>
		<text id="lbl2" data-disabled="false" transform="matrix(1 0 0 1 96.2504 275.9999)" font-family="'Avenir-Heavy'" font-size="21px">2</text>
		<text id="lbl1" data-disabled="false" transform="matrix(1 0 0 1 93.9767 324.769)" font-family="'Avenir-Heavy'" font-size="21px">1</text>
	</g>
	<g class="spots">
		<polygon id="Tooth17" fill="#FFFFFF" data-key="17" data-disabled="false" points="371.7,417 378.3,417.3 386.7,415.7 391.7,415.3 397.3,417.7 402.7,416.3 407.7,409.7
			406.7,395 401,377.7 397.3,373 390.7,367.3 380,365 373,366.7 367.3,369 364,374.3 360,389 363.3,401.3 367.7,412.3 	"/>
		<polygon id="Tooth16" fill="#FFFFFF" data-key="16" data-disabled="false" points="404.3,293.7 408.7,299.3 408.7,308 405.3,318.7 401,329.7 392.3,339.7 382.7,341
			369,339.7 359,335 354.7,327.7 354.3,316 358.3,304 363.7,294 368.7,294.7 378.7,296 389,296 	"/>
		<polygon id="Tooth15" fill="#FFFFFF" data-key="15" data-disabled="false" points="362.3,247.3 357.3,251 357,259.3 358.7,268 359.7,279.7 361.3,286.7 365,291.7
			371,294.3 392,295 404.3,293.7 410,280.7 412,263.3 407.3,246.7 401,240.3 396,239.7 389.3,243 	"/>
		<polygon id="Tooth14" fill="#FFFFFF" data-key="14" data-disabled="false" points="359.7,243.7 350.7,224 345.7,211.7 348.7,205 358.3,202.7 375.7,197 388.7,193
			393,196 399.3,207 401.3,222.7 400,234.3 394.7,240.7 381.7,244.7 371,246 	"/>
		<polygon id="Tooth13" fill="#FFFFFF" data-key="13" data-disabled="false" points="386,188.7 383.3,192.7 377.7,196 356.3,203.3 345.7,202.3 341.7,199.7 338.7,196.3
			335,188.7 332,177 333.7,169.7 338,164.7 346.3,161 353.7,156.7 360.3,150.3 364,151 370.7,156.3 376.3,164.3 380,170.3
			383.3,178.3 	"/>
		<polygon id="Tooth12" fill="#FFFFFF" data-key="12" data-disabled="false" points="358.7,134.3 360.3,145.7 357.3,152.7 352,157.3 346.3,161 336,164 329.7,163.3
			321.7,157.7 314.3,149 310.7,139.3 310,133.7 312.3,127 318.3,125.7 326,122 332.7,116 334.7,114.3 337.7,117.3 343.3,119.7
			348.7,122.7 354.3,127.7 	"/>
		<polygon id="Tooth11" fill="#FFFFFF" data-key="11" data-disabled="false" points="336,93.3 337.7,100 336,104.7 332.7,113.7 324.3,121.3 315.3,125.7 306.3,126
			297.3,120.3 294,112 295.7,102.7 299,95 303.3,90 309.3,88 316.3,87.3 322.7,87.3 328,88.3 	"/>
		<polygon id="Tooth10" fill="#FFFFFF" data-key="10" data-disabled="false" points="310.3,83.3 298,90.7 286,95 276.3,98.3 270.3,93.3 269,82.7 269,69.3 270,58.7
			274.7,54.7 282,53 287.7,54.7 297.3,60.3 304,64.3 308.7,68.7 312.3,74 313,81 	"/>
		<polygon id="Tooth9" fill="#FFFFFF" data-key="9" data-disabled="false" points="273.3,52 266.7,61.7 258.3,72.3 253.3,79.7 247.3,85 239,87.7 232.3,82 224.7,67
			222,58.3 219,50 220,44.3 224.3,40.3 230,38.7 237.3,38.7 253,39.3 258.7,41.3 264.3,43.7 268.3,45.7 	"/>
		<polygon id="Tooth8" fill="#FFFFFF" data-key="8" data-disabled="false" points="176.7,46.3 195,41 203.3,39.7 209.3,40.7 215.3,42.7 217,47 217.7,54.3 215,64.7
			212.3,75.7 208,83 201.7,85.7 195.7,86.7 189.7,83.3 183.7,74.7 175,62 171.7,54 172.7,49.7 	"/>
		<path id="Tooth7" fill="#FFFFFF" data-key="7" data-disabled="false" d="M167,55l6.7,6.3L174,68l0.3,8l1,10l-2,8.3l-4.7,4.3l-6.7,1.7l-8-4.3l-7.3-4.7l-9.3-4.7
			l-6.3-5.3l-1-4.3l1.3-5c0,0,3.3-6,4.3-6s5.3-6,6.3-6s10.3-4.7,10.3-4.7L167,55z"/>
		<polygon id="Tooth6" fill="#FFFFFF" data-key="6" data-disabled="false" points="126.3,82 134.3,86.3 139.7,92.3 144.7,104.7 145.7,115.3 143.7,120.7 138,124.3
			131.3,125 121,125 114.7,119.3 110.3,112.3 108.3,104.7 108.7,94.7 110.7,88.7 116,84 	"/>
		<polygon id="Tooth5" fill="#FFFFFF" data-key="5" data-disabled="false" points="109,116.7 116,122.3 122.7,125.3 127.7,131.3 128.3,141 122.7,153.7 114,161.7
			105.7,162.3 96.7,161 85.7,156 82,150 81,139.3 86.3,128 93,121.3 100.7,117.3 	"/>
		<polygon id="Tooth4" fill="#FFFFFF" data-key="4" data-disabled="false" points="82,155.3 102.3,163.3 108.7,172 109.3,182 104.7,192 100,199 94,203.7 85.3,201.7
			73.7,201 64.3,196.7 60.3,190.7 59,183.3 61.7,175.3 66.3,167.7 71.3,161.3 	"/>
		<path id="Tooth3" fill="#FFFFFF" data-key="3" data-disabled="false" d="M92.7,207.3l2,5.3l-1.7,8l-1.7,9l-4,8l-5,7.7l-11,4.7l-13.7,0.7l-10-7l-1.7-5L45,220l3-10.7
			l5-7.3l4-3.3l4.7-2.7l5.3,3.7l6.7,1.3c0,0,7.3,1.3,9.3,1.3s6.3,0.7,6.3,0.7L92.7,207.3z"/>
		<polygon id="Tooth2" fill="#FFFFFF" data-key="2" data-disabled="false" points="79.7,288.3 71.7,291 55,293 40.3,291.3 36,287 33,273.7 36.3,260 42,248.7 44.7,244.7
			50.3,246.7 56,249 65.3,250.7 74,249.7 80.3,249.7 82.3,254 85.3,259.3 87,267.7 87.7,274.7 85.3,282.7 	"/>
		<polygon id="Tooth1" fill="#FFFFFF" data-key="1" data-disabled="false" points="33,314.3 38,325.7 45.7,335.7 55.7,341.7 64.7,343 73.3,340 77.7,335.7 81.3,326.3
			82,314.3 81.3,302 80.7,292.7 73.7,292 51.3,293.7 38.7,293.7 34,298 31.7,302.3 32,311 	"/>
	</g>
	<g class="adult-outlines">
		<g id="XMLID_210_">
			<path id="XMLID_208_" fill="#010101" d="M372.6,180.5c0.2,1.4-2,2.3-2.9,1.2c-0.7-1.1,1.5-1.8,2.4-0.9L372.6,180.5z"/>
			<path id="XMLID_199_" fill="#010101" d="M83.6,183.9c1.2,0.1,2.2,1.1,2.3,2.3c-1.2,1.3-3.7-1.1-2.4-2.3L83.6,183.9z"/>
			<path id="XMLID_186_" fill="#010101" d="M63.1,269.9c2.1,0.4,3.5,2.9,2.7,4.9c-1.8-0.7-3-2.8-2.7-4.7L63.1,269.9z"/>
			<path id="XMLID_183_" fill="#010101" d="M378.3,306.7c1.2,0.4,1.9,1.7,1.7,2.9c-1.9,0.2-3.7-1.6-3.6-3.4c0.5-0.6,1.6-0.3,1.8,0.4
				L378.3,306.7z"/>
			<path id="XMLID_176_" fill="#010101" d="M63.1,270.1c-1.4-0.5-2.4-2.1-2.2-3.6c0.2-1.5,1.5-2.9,3-3.1c-0.2,2.2-0.5,4.4-0.9,6.7
				L63.1,270.1z"/>
			<path id="XMLID_172_" fill="#010101" d="M389.2,304.3c1.4-0.6,2.6,1.8,1.7,3c-1,1.3-2.7,1.4-4.3,1.5c-0.6-1.8,0.9-3.9,2.8-4
				L389.2,304.3z"/>
			<path id="XMLID_161_" fill="#010101" d="M66.5,229c0.7,1.9,1.4,3.8,2.1,5.7c-0.7,0.2-1.4,0.3-2.1,0.5c-1-2.7-2.1-5.4-3.1-8.1
				C64.3,226,65.9,227.6,66.5,229z"/>
			<path id="XMLID_157_" fill="#010101" d="M373.1,216.3c1.2-2.9,3.1-5.5,5.5-7.5c0.8,0,1.6,0,2.4,0
				C379.5,212.4,377,216.7,373.1,216.3z"/>
			<path id="XMLID_154_" fill="#010101" d="M63.1,219.6c-0.2,2.4-1.4,4.6-3.4,6c-1.2-0.9-0.8-2.8-0.3-4.2c1-2.8,2-5.6,3.1-8.3
				C64.3,214.7,64.6,217.8,63.1,219.6L63.1,219.6z"/>
			<path id="XMLID_148_" fill="#010101" d="M111.7,137.3c-3.4,0.7-6.9,0.6-10.2-0.3c-1.3-1.3-1.6-3.5-0.6-5c1.3,2,3.7,3.3,6,3.2
				c1,0,2.1-0.3,3.1-0.1C111.1,135.3,112,136.3,111.7,137.3L111.7,137.3z"/>
			<path id="XMLID_129_" fill="#010101" d="M102.5,140.9c-0.4,1.9-1,3.7-1.8,5.4c-2.4,0.3-4.7,0.6-7.1,0.9c2.5-2.7,4.9-5.4,7.4-8
				c0.2-0.5,1.1-0.5,1.4,0C102.7,139.6,102.6,140.3,102.5,140.9z"/>
			<path id="XMLID_119_" fill="#010101" d="M262.1,54.8c-4.1-0.8-8.2-2.1-12.1-3.7c-0.5-0.2-0.9-0.8-1-1.4
				C253.8,47.6,259.9,50,262.1,54.8z"/>
			<path id="XMLID_117_" fill="#010101" d="M359.4,184.9c2.1-2.4,4.2-4.8,6.3-7.2c0.1,4.3-2.2,8.6-5.9,10.8c-0.8,0.3-1.6-0.6-1.6-1.4
				C358.3,186.2,358.9,185.5,359.4,184.9z"/>
			<path id="XMLID_97_" fill="#010101" d="M77.7,167c1.7,0.3,3,1.6,4.3,2.8c2,1.9,4,3.8,6,5.8c-3.1,0.1-5.4,2.7-7.5,4.9
				c-2.1,2.2-5,4.4-8,3.6c-0.1-0.7-0.2-1.5-0.3-2.2c3.3-0.2,6.5-2.5,7.6-5.6C81,173.1,80.1,169.3,77.7,167z"/>
			<path id="XMLID_67_" fill="#010101" d="M201.2,50.3c-6.4,2.4-13.2,3.8-20.1,4.1C186.6,49.8,194.4,48.2,201.2,50.3z"/>
			<path id="XMLID_60_" fill="#010101" d="M391.5,280.2c-1.3-2.9-4.6-4.4-7.2-6.3c-2.6-1.9-5-5.3-3.6-8.2c0.5-1,1.4-1.8,2-2.7
				c1.1-1.5,1.7-3.3,1.6-5.1c1.3,1.2,1.6,3.3,1.3,5.1c-0.3,1.8-1,3.5-1.1,5.3c-0.2,1.8,0.3,3.9,1.9,4.8c1.5,1,4.1,0,4.1-1.8
				C391.7,274.1,392.1,277.3,391.5,280.2z"/>
			<path id="XMLID_49_" fill="#010101" d="M70.8,209.5c1.2,2.9,2.5,5.9,3.7,8.8c0.3,0.7,0.6,1.4,0.5,2.1c-0.1,0.7-0.5,1.3-0.8,1.8
				c-1.2,1.8-2.4,3.6-3.6,5.4c-1.4-0.3-1.7-2.2-1.2-3.5c0.5-1.3,1.6-2.4,2-3.7c0.9-3.6-3.4-7.1-2.2-10.6
				C69.6,209.3,70.4,209.2,70.8,209.5z"/>
			<path id="XMLID_48_" fill="#010101" d="M292.7,71.3c-0.8-0.7-1.6-2.1-0.7-2.6c4.8,1.5,9,4.8,11.6,9.1c-0.4,0.6-1.1,1-1.8,1.1
				C298.8,76.3,295.7,73.8,292.7,71.3z"/>
			<path id="XMLID_44_" fill="#010101" d="M366.5,164.1c-0.4,1.3-0.7,2.6-1.4,3.8c-2.4,4.5-8.6,6.6-13.2,4.3
				c2.9-3.2,9.5-1.5,11.4-5.4c0.4-0.8,0.5-1.7,1-2.4S366,163.5,366.5,164.1z"/>
			<path id="XMLID_43_" fill="#010101" d="M392.5,251.6c-1.6,3-0.8,7.1,1.9,9.3c1.4,1.2,1.9,3.3,1.2,5c-0.8,1.7-2.8,2.7-4.6,2.3
				c1.3-2.6,1.3-5.9,0.1-8.6c-0.8-1.8-2.2-3.4-2.3-5.3C388.7,252.4,391,250.3,392.5,251.6z"/>
			<path id="XMLID_39_" fill="#010101" d="M370.9,231.8c1.5-4.6,5.7-8.2,10.5-8.9c1.6-0.2,4,0.9,3.2,2.4
				C380.1,227.5,375.5,229.6,370.9,231.8z"/>
			<path id="XMLID_66_" fill="#010101" d="M408.9,285.8c7.9-15.8,6-38.2-9.1-47.3c7.5-16.1,2.5-37.1-11.5-48.1
				c-2.6-15.9-11.2-30.8-23.7-41.1c-3.5-2.9-3.3-8.2-3.9-12.7c-0.3-2.2-1.3-4.7-2.7-6.4c0,0,0-0.1-0.1-0.1c-0.7-1.1-1.7-2-2.6-2.8
				c-1.4-2-3.1-4-5-5.3c-0.4-0.3-0.8-0.5-1.3-0.8c0.1,0,0.3,0,0.4,0c-0.4-0.2-0.8-0.3-1.2-0.5c-0.8-0.4-1.7-0.8-2.4-1.4
				c-1.1-0.7-1.9-1.1-2.9-1.1c-1.4-0.8-2.7-1.8-3.8-3c-2.7-3-3.9-7.8-1.4-11c4-5.3,0.2-13.6-5.8-16.5s-13.1-2.1-19.7-1.2
				c3.3-3.9,3.4-9.8,1.4-14.5c-2.1-4.7-6-8.3-10.2-11.2c-8.1-5.6-17.6-9.1-27.4-10c-2.4-1.7-4.3-3.7-6.5-5.4c-2.5-1.9-5.6-3-8.4-4.3
				c-0.1,0-0.1,0-0.2,0c-12.1-6.2-27.1-6.6-39.4-0.7c-4.2,2-9-0.1-13.5-1.3c-14.4-4-31,2.2-39.3,14.6c-15.1-3.5-32.1,5.4-37.9,19.8
				c-1.4,3.4-3.4,7.8-7,7.1c-6.8-1.2-13.3,4.4-15.5,11c-2.2,6.6-1,13.7,0.4,20.5c0.6,2.8-3.4,4-6.2,4.4c-13.6,2-24.2,16.2-22.3,29.8
				c0.4,2.5,0.9,5.6-1,7.2c-8,6.9-16.4,14.4-19.6,24.5c-1.8,5.7-1.1,12.4,1.7,17.5c0,0-0.1,0-0.1,0.1c-1,0.7-2.1,1.4-3.1,2
				c-0.4,0.2-0.7,0.5-1.1,0.7c-6.1,0.9-10.5,7.4-11.6,13.7c-1.2,6.9,0.3,14.1-0.4,21.1c-1,10.4-6.6,19.8-9.9,29.7
				c-3.3,9.9-3.8,22.3,3.8,29.5c-3.6,2.2-6.3,5.9-7.2,10c-0.2,0.2-0.2,0.4-0.3,0.6c-0.2,0.2-0.3,0.4-0.3,0.7c0,2.3,0,4.6,0.8,6.8
				c0.3,6.8,3.2,13.5,7.8,18.5c0.2,0.5,0.4,0.9,0.7,1.3c0,0,0,0,0,0c1.5,2.6,3.5,4.6,6.1,6.4c2,1.4,4,3.3,6.1,4.7
				c4.3,4.6,12.1,5.7,18,3c7-3.2,11.5-10.5,13.2-18.1s1-15.4,0.3-23.1c-0.4-4.3-0.7-8.5-1.1-12.8c1.8-2.6,3.1-5.5,4-8.5
				c0.3-0.7,0.6-1.3,0.8-2c0.4-1.5,0.6-3.2,1-4.7c0.2-0.7,0.3-1.3,0.3-2c3.4-9.7-9.3-22.2-2.6-30.3c8.7-10.4,12.1-25,9-38.2l2-1.8
				c0.9-0.3,1.7-0.8,2.4-1.6c1-1.2,2.3-2,3.3-3.3c0.6-0.8,1.1-1.6,1.5-2.4c0.5-0.5,1-1,1.5-1.6c0-0.1,0.1-0.1,0.1-0.2
				c3.6-3.1,4.9-9.4,4.8-14.6c-0.2-7-0.1-15.7,6.2-18.7c11.4-5.6,16.9-21,11.4-32.5c6.1-0.7,12.5-2.7,16.2-7.6
				c6.6-8.8,1.2-21.2-4.3-30.7c9.3,2.2,16.2,12.8,25.7,11.6c6.5-0.8,11.1-7.3,11.9-13.7s-1.1-13-3.1-19.2c8.3,4.9,11.6,17,21,19.4
				c6.8,1.8,13.9-2.8,17.4-8.9c3.5-6.1,4.2-13.3,4.9-20.3c5.4,3.6,7,10.6,9,16.7c2,6.1,6,12.9,12.4,13.3c4.8,0.4,9-3,12.5-6.3
				c5.5-5.4,10.6-11.3,14.9-17.7c3,5.6,1.5,12.3,1,18.6c-0.4,6.3,1.2,13.9,7.2,16.1c7.7,2.7,14.8-6,23-6.9c-3,7.9-7.4,16.3-4.6,24.2
				c2.5,7.1,10.3,11.1,17.8,11.1c-0.7,0.9-1.3,1.9-1.5,3c-0.4,1.8-0.1,3.8-0.1,5.6c0,0.1,0,0.3,0.1,0.4c-1,9.7,7,19.7,16,25
				c3.6,2.1,8,5.4,6.6,9.2c-2.5,6.8-1,14.8,3.5,20.4c0.3,2.7,2.6,5.2,4.3,7.2c1.5,1.8,3.2,3.4,5.2,4.5c0.5,1,1,2.1,1.5,3.1
				c-1.2,1.6-1.1,4.2-0.9,6c0.1,1.3,0.3,2.7,0.7,3.9c0.4,1.1,1.1,2,1.5,3.2c1.5,6.7,4,13.2,7.3,19.1c1.3,2.3,2.8,4.8,2.3,7.5
				c-2.5,14-1.1,28.8,4.1,42c1.6,4.1-0.5,8.6-2.4,12.6c-2.8,5.6-5.4,11.5-6.1,17.7c-0.7,6.2,0.7,13,5.2,17.4
				c5.3,5.3,13.3,6.2,20.7,6.7c3.7,0.2,7.4,0.4,10.9-0.7c8-2.5,12.5-10.9,16.1-18.5c4.2-8.8,8.1-20,1.9-27.5
				C405.4,293.1,407.3,289,408.9,285.8z M73.7,338.6c-5.9,4.3-13.9,3.3-21,1c-1.7-1.2-3.4-2.8-5-3.9c-3-2.1-5.4-4.3-6.9-7.7
				c-0.1-0.2-0.2-0.3-0.3-0.3c-0.3-0.7-0.5-1.5-0.8-2.2c-2.2-5.4-4.3-10.8-6.5-16.2c-0.1-0.2-0.2-0.3-0.3-0.5c-0.4-1.6-0.4-3.3-0.3-5
				c0.2-0.2,0.2-0.5,0.2-0.7c2.2-2.7,4.5-5.4,6.7-8.1c11.8-0.5,23.7-1,35.5-1.6c1.5-0.1,3.2-0.1,4.3,0.8c1.5,1.2,1.7,3.4,1.7,5.3
				c0,5.1,0.1,10.3,0.1,15.4C81.2,323.6,80.6,333.5,73.7,338.6z M84.1,260.4c0.5,4.1,0.4,8.7,2.4,12.1c0.2,2.1-0.8,4.8-1.3,6.7
				c-0.4,1.7-1.8,4.2-3,5.3c-0.1,0.1-0.1,0.1-0.1,0.2c-5.9,4.8-15.2,6.3-23.2,7c-8.3,0.7-18.8,0.2-22.4-7.3
				c-1.8-3.6-1.3-7.9-0.8-11.9c1.2-9.5,2.9-19.9,10.3-26c8.5,5.4,19.2,7.1,29,4.6C79.7,249.7,83.5,255.5,84.1,260.4z M93,214.7
				c-0.7,12.3-5.3,25.3-15.8,31.7c-10.5,6.4-27.2,2.5-30.3-9.4c-3.3-12.5,0.2-26.5,8.9-36.1c0.9-0.3,1.6-0.8,2.4-1.3
				c1.2-0.7,2.4-1.5,3.6-2.3c0.1,0,0.1-0.1,0.1-0.1c2.2,3.2,5.3,5.6,9.2,6.4c7.5,1.6,18-1.8,21.3,5.2C93.2,210.6,93.1,212.7,93,214.7
				z M102,194.9c-0.4,0.1-0.6,0.5-0.7,0.9c0,0,0,0,0,0.1c-0.7,0.7-1.3,1.4-2,2.1c-0.9,0.9-1.9,1.9-3,2.6c-0.5,0.3-1,0.4-1.5,0.6
				c-4.2-0.2-8.4-0.4-12.5-0.7c-6.7-0.3-14.3-1.1-18.5-6.4c-6.7-8.4,0-20.5,6.6-29c3.2-4,7.5-8.5,12.5-7.4
				c10.3,2.3,22.3,6.3,24.9,16.5C109.7,181.4,105.9,188.6,102,194.9z M123.9,148.8c-3.2,5.8-8,11.5-14.5,12.7
				c-4.4,0.8-8.9-0.6-13.1-2c-3-1-6.1-2-8.5-4c-5.1-4.1-6.5-11.6-4.7-17.8c1.8-6.3,6.4-11.4,11.5-15.5c1.3-1.1,2.7-2.1,4.2-2.8
				c5.1-2.4,11.8-1,15.5,3.2c2.1,2.4,5.7,2.8,8.3,4.5c3.3,2.2,5,6.4,4.9,10.4C127.4,141.5,125.8,145.3,123.9,148.8z M143,105
				c0.8,3,1.6,6,1.4,9.1s-1.6,6.2-4.1,7.9c-2.5,1.7-5.6,1.8-8.6,1.8c-4,0.1-8.1,0.1-11.6-1.5c-4-1.8-6.9-5.6-8.4-9.8
				c-1.5-4.1-1.7-8.6-1.6-13c0.2-4.3,0.8-9,3.8-12.2c4.7-5.2,13.5-4.5,19-0.1C138.3,91.4,141,98.3,143,105z M169.3,97.2
				c-3.9,2.5-9.2,1.3-13.1-1.1s-7.3-5.7-11.5-7.8c-4.5-2.2-10.4-3.4-12.3-8c-2.2-5.1,2.2-10.6,6.5-14.1c2.3-1.9,4.8-3.6,7.3-5.2
				c4.6-2.9,9.8-5.5,15.3-5.2s11,4.3,11.4,9.8c0.1,1.8-0.3,3.5-0.5,5.2c-0.4,4.6,1,9.2,1.4,13.9C174.3,89.4,173.2,94.7,169.3,97.2z
				M215.9,55.6c-0.9,3.8-1.7,7.6-2.6,11.4c-0.9,4-1.8,8.1-4,11.6c-2.2,3.5-5.8,6.4-9.9,6.4c-5.8,0.1-10.2-4.9-13.8-9.5
				c-4.6-5.9-9.2-12-11.4-19.2c-0.6-2-1-4.2-0.1-6.1c1-2.1,3.4-3.2,5.6-4c6.5-2.4,13.2-4.1,20-5c3.1-0.4,6.3-0.7,9.4,0.1
				c3,0.8,5.9,2.8,7,5.7C217.1,49.8,216.5,52.8,215.9,55.6z M253.2,78.2c-2.8,3.4-6.1,7.1-10.5,7.4c-7.2,0.6-11.7-7.5-14.3-14.3
				c-1.9-5-3.9-10.1-5.8-15.1c-1.4-3.6-2.7-7.7-0.9-11c2-3.9,7.2-4.9,11.6-5.1c9.6-0.4,19.3,0.9,28.5,3.6c2.6,1.2,5.4,2.4,7.4,4.3
				c1,1,2,1.8,3,2.6C266.5,60.3,260.2,69.5,253.2,78.2z M285.7,94.2c-4.4,1.9-10.3,3.5-13.3-0.2c-1.7-2-1.8-5-1.7-7.6l0.4-23.8
				c0.1-5.1,5.8-8.5,10.8-8.2c5,0.4,9.5,3.4,13.6,6.3c2.6,1.9,5.3,3.7,7.9,5.6c4.3,3,9,7.2,8.1,12.3c-0.8,4.4-5.5,6.9-9.7,8.6
				C296.5,89.6,291.1,91.9,285.7,94.2z M305.4,123.7c-2.5-0.8-4.9-2.2-6.6-4.2c-4-4.9-3-12.1-0.9-18c1.7-4.8,4.3-9.8,9-11.6
				c3.4-1.3,7.1-0.7,10.7-0.6c4,0.2,8-0.2,11.8,1.1c3.8,1.2,7.2,4.7,6.8,8.6c-0.8,7.5-4,14.8-9.7,19.8
				C320.7,123.7,312.5,126,305.4,123.7z M322.8,157.1c-6-5.6-10.1-13.2-11.6-21.2c0-1.1,0-2.1,0-3.2c0.1-1.8,0.7-2.9,1.8-4.2
				c0.2-0.2,0.2-0.4,0.2-0.6c8-0.9,15.2-5.7,21.2-11.1c1.9,1.1,3.9,2.1,6,2.8c3.1,1.8,6.6,3.6,9.3,5.9c0.7,0.6,1.2,1.4,1.9,2
				c0.2,0.2,0.4,0.3,0.6,0.5c0,0,0,0,0,0c0.7,0.5,1.4,1,2,1.5c0.4,0.6,0.8,1.2,1.1,1.8c0.2,0.3,0.5,0.5,0.8,0.5
				c3,4.4,3.6,10.5,1.6,15.5c-2.6,6.8-8.9,11.6-15.7,14.1c-3,1.1-6.1,1.7-9.3,1.3C329,162.1,325.6,159.8,322.8,157.1z M341.6,198.1
				c-1-1.1-2.5-2.8-3.5-4.5l-0.8-2.2c0-0.1,0-0.1,0-0.2c0-0.3-0.1-0.5-0.3-0.7l-1.3-3.8c-1.6-4.7-3.3-9.8-1.5-14.5
				c3.7-9.8,18.7-9.8,24.5-18.5c2.3-3.4,7.5-0.5,10.1,2.7c5.9,7.2,10.8,15.2,14.5,23.7c0.9,2,1.7,4.1,1.4,6.3c-0.5,4.3-5,6.8-9,8.6
				c-10.1,4.6-21.5,9.2-31.8,5.3C343.1,199.7,342.3,198.9,341.6,198.1z M347.3,212.8c-0.2-1.5-0.2-3.3,0.2-4.5
				c11.8-4.2,23.7-8.3,35.5-12.5c1.7-0.6,3.4-1.2,5.2-0.9c2.3,0.3,4.2,2.1,5.6,4c4.5,6.2,5.3,14.2,5.9,21.8
				c0.4,5.3,0.7,11.2-2.7,15.2c-2.3,2.8-5.9,4.1-9.4,5.1c-5.9,1.7-12,2.8-18.2,3.3c-3.1,0.2-6.5,0.2-8.8-1.9
				c-1.3-1.2-2.1-2.9-2.8-4.6C354.3,229.6,350.8,221.2,347.3,212.8z M360.8,269.5c-0.6-3.5-2-6.9-2.5-10.4s0.2-7.6,3-9.8
				c1.9-1.4,4.3-1.8,6.6-2c8.9-0.7,18.5,0.3,25.9-4.8c3-2,7.2-0.5,9.8,2.1c7.1,6.8,6.6,18.1,5.7,27.9c-0.7,7.5-2.3,16.3-9.1,19.5
				c-2.9,1.4-6.1,1.4-9.3,1.4c-3.8,0-7.6,0.1-11.4,0.1c-5.3,0-11.3-0.2-15-4.1C359.9,284.3,361.9,276.3,360.8,269.5z M402.2,323.4
				c-2.2,4.8-4.6,9.9-9,12.8c-5.7,3.8-13.2,3-20,1.9c-4-0.7-8.1-1.4-11.6-3.6s-6.2-5.9-5.8-10c0.6-7.6,2.2-15.1,4.8-22.3
				c0.9-2.4,2.1-5,4.5-6c1.7-0.7,3.6-0.3,5.4,0c9.6,1.7,19.4,1.4,28.9-0.6c1.3-0.3,2.7-0.6,4-0.3c2.4,0.7,3.6,3.4,4,5.9
				C408.6,308.9,405.3,316.4,402.2,323.4z"/>
			<path id="XMLID_25_" fill="#010101" d="M339.6,130.4c2.1,3.2,3.6,6.8,4.7,10.5c-4.2-1.5-9.2,2.8-8.3,7.2c-2-0.7-2.5-3.5-1.7-5.5
				c0.8-2,2.3-3.6,3.3-5.5c1-1.9,1.3-4.5-0.2-5.9C338.1,130.9,338.8,130.7,339.6,130.4z"/>
			<path id="XMLID_20_" fill="#010101" d="M386.8,329.1c0.4-5-2.7-10.1-7.4-12.1c0.1-1.4,2.3-1,3.6-0.6c2.7,0.9,5.8,0.1,7.7-2
				c1.2,0.2,1.1,2.1,0.3,3c-0.8,0.9-2.1,1.4-2.7,2.5c-0.9,1.7,0.4,3.6,1,5.4S388.4,330,386.8,329.1z"/>
			<path id="XMLID_15_" fill="#010101" d="M155,66.8c1.3-0.8,3.7-1,3.7,0.5c-5.6,3.5-11.1,7-16.8,10.4c-1.6-1,0.1-3.4,1.7-4.3
				C147.4,71.2,151.2,69,155,66.8z"/>
				c0.9,0.3,2.1,1.3,1.4,2c-1.2,1.4-0.2,3.6,0.4,5.3c0.7,1.8,0.4,4.5-1.5,4.6C59.7,317.9,57.8,314.3,55,311.6z"/>
			<path id="XMLID_6_" fill="#010101" d="M47.9,271.6c1.3-4.4,3-8.8,4.9-13c1.6,0.1,2.4,2.2,2,3.7c-0.4,1.6-1.5,2.9-2,4.4
				c-0.6,1.5-0.3,3.6,1.1,4.2c2.7,1.1,4.3,4.2,3.8,7.1c-1,1-2.2-0.9-2.6-2.2C54.3,272.8,50.8,270.2,47.9,271.6z"/>
		</g>
	</g>
</svg>
