<!DOCTYPE svg PUBLIC "-//W3C//DTD SVG 20010904//EN" "http://www.w3.org/TR/2001/REC-SVG-20010904/DTD/svg10.dtd">
<svg version="1.0" xmlns="http://www.w3.org/2000/svg" width="500px" height="500px" viewBox="0 0 5000 5000" preserveAspectRatio="xMidYMid meet">
<g id="layer101" fill="#303231" stroke="none">
 <path d="M3010 4883 c-43 -16 -108 -102 -135 -178 -16 -44 -20 -122 -31 -620 -10 -477 -16 -594 -33 -715 -12 -80 -35 -298 -51 -485 -47 -530 -58 -604 -97 -647 -20 -22 -61 -23 -90 -3 -54 38 -200 633 -288 1177 -46 281 -52 310 -81 381 -24 56 -45 179 -94 530 -31 229 -61 346 -96 376 -26 22 -34 23 -106 18 -96 -8 -138 -25 -173 -71 -80 -104 -152 -419 -184 -796 -38 -449 -49 -706 -61 -1500 -9 -590 -8 -574 -81 -798 -78 -240 -120 -494 -121 -735 -1 -163 12 -224 64 -299 18 -26 51 -73 74 -105 23 -32 47 -76 54 -98 17 -55 37 -74 81 -81 21 -4 61 -22 91 -40 128 -82 177 -91 266 -49 88 41 150 55 272 61 137 8 168 20 215 84 40 54 50 60 108 60 51 0 107 -25 190 -83 96 -68 238 -146 313 -172 115 -41 280 -28 417 33 111 50 343 304 405 445 25 58 14 158 -53 475 -85 401 -119 536 -167 656 -27 68 -42 127 -49 185 -13 112 2 419 41 821 37 393 43 530 30 720 -25 383 -72 564 -224 875 -52 105 -124 251 -160 325 -37 74 -79 153 -94 175 -39 56 -112 93 -152 78z"/>
 </g>
<g id="layer102" fill="#fcfcfc" stroke="none">
 <path d="M1943 4713 c9 -2 25 -2 35 0 9 3 1 5 -18 5 -19 0 -27 -2 -17 -5z"/>
 <path d="M2942 4687 c-19 -22 -22 -79 -32 -572 -9 -451 -23 -664 -50 -805 -23 -119 -31 -193 -40 -390 -16 -326 -51 -576 -96 -690 -12 -30 -27 -46 -57 -61 -83 -43 -149 1 -191 128 -36 111 -147 563 -196 797 -43 206 -48 224 -80 256 -19 19 -25 50 -35 185 -4 44 -20 159 -36 255 -16 96 -37 245 -45 330 -15 156 -45 294 -83 383 -39 90 -45 65 -38 -170 7 -238 32 -508 77 -818 16 -110 34 -256 39 -325 18 -208 56 -364 133 -549 23 -53 60 -157 84 -232 51 -164 66 -199 106 -262 36 -57 92 -92 169 -106 96 -17 164 10 217 88 85 124 127 295 187 764 19 147 45 305 58 350 22 81 22 90 22 722 0 494 -3 648 -13 676 -17 49 -76 76 -100 46z"/>
 <path d="M3095 4690 c-8 -12 3 -54 33 -120 98 -221 190 -1220 153 -1661 -13 -153 -46 -351 -90 -544 -17 -71 -44 -213 -62 -315 -29 -170 -32 -210 -38 -498 l-6 -314 -24 -19 c-35 -29 -59 -24 -174 35 -137 71 -185 80 -372 73 -231 -8 -330 -32 -459 -111 -67 -40 -95 -45 -119 -18 -40 44 -46 166 -22 459 40 479 38 540 -20 1004 -51 406 -61 641 -46 1157 13 460 25 675 41 717 15 39 4 47 -37 30 -51 -21 -101 -61 -124 -99 -131 -212 -188 -1080 -189 -2852 0 -564 8 -718 40 -791 36 -81 67 -80 275 9 l140 60 45 -15 c25 -8 99 -34 165 -58 161 -58 234 -59 450 -7 83 20 169 39 191 42 109 15 256 -48 364 -156 37 -37 73 -68 78 -68 6 0 21 17 33 38 13 20 52 73 88 116 35 44 70 95 78 114 17 41 20 116 33 877 11 596 21 837 46 1030 8 66 18 235 21 375 9 377 -23 624 -106 821 -17 40 -39 81 -49 89 -9 8 -30 53 -46 100 -37 111 -185 417 -227 469 -32 40 -52 50 -64 31z"/>
 <path d="M2844 3990 c0 -74 1 -105 3 -67 2 37 2 97 0 135 -2 37 -3 6 -3 -68z"/>
 <path d="M3644 3255 c0 -49 1 -71 3 -48 2 23 2 64 0 90 -2 26 -3 8 -3 -42z"/>
 <path d="M1494 2545 c0 -49 1 -71 3 -48 2 23 2 64 0 90 -2 26 -3 8 -3 -42z"/>
 <path d="M3563 2115 c0 -22 2 -30 4 -17 2 12 2 30 0 40 -3 9 -5 -1 -4 -23z"/>
 <path d="M3562 1900 c0 -19 2 -27 5 -17 2 9 2 25 0 35 -3 9 -5 1 -5 -18z"/>
 <path d="M3597 1533 c-4 -6 -13 -111 -22 -234 -16 -247 -31 -344 -69 -464 -43 -132 -145 -235 -234 -235 -35 0 -97 43 -140 97 -46 58 -136 97 -227 97 -82 1 -218 -41 -266 -81 -37 -31 -137 -45 -250 -33 -62 6 -82 12 -105 33 -34 32 -220 107 -266 107 -19 0 -76 -17 -128 -39 -163 -66 -246 -76 -306 -36 -28 18 -64 91 -82 165 -13 53 -29 210 -38 364 -4 80 -9 105 -16 92 -17 -31 -48 -148 -63 -241 -17 -104 -20 -387 -4 -454 13 -60 70 -170 133 -261 60 -86 66 -88 148 -39 35 22 70 34 106 37 47 4 61 0 155 -47 114 -57 196 -75 286 -60 85 13 113 26 197 89 125 95 217 119 319 84 70 -23 213 -114 330 -208 57 -47 121 -92 141 -101 62 -25 130 -19 209 19 58 28 91 54 192 159 73 75 133 147 150 179 26 49 28 61 27 158 -2 110 -19 216 -98 590 -44 208 -67 283 -79 263z"/>
 <path d="M1283 795 c0 -22 2 -30 4 -17 2 12 2 30 0 40 -3 9 -5 -1 -4 -23z"/>
 <path d="M2605 431 c-10 -18 8 -35 88 -82 40 -23 93 -60 119 -81 26 -21 93 -60 150 -87 111 -52 145 -63 153 -51 7 11 -21 33 -104 79 -41 23 -99 67 -130 100 -81 84 -252 160 -276 122z"/>
 <path d="M1705 345 c-86 -85 79 -195 210 -141 19 8 35 22 35 30 0 26 -59 83 -112 110 -66 33 -102 33 -133 1z"/>
 </g>

</svg>